<mxfile host="Electron" modified="2023-12-12T08:45:23.685Z" agent="Mozilla/5.0 (Windows NT 10.0; Win64; x64) AppleWebKit/537.36 (KHTML, like Gecko) draw.io/22.1.2 Chrome/114.0.5735.289 Electron/25.9.4 Safari/537.36" etag="Ktw3l3rmn2zN5AU8tPh-" version="22.1.2" type="device">
  <diagram name="Page-1" id="56gKudeVXyGofn3kyY--">
    <mxGraphModel dx="1050" dy="621" grid="1" gridSize="10" guides="1" tooltips="1" connect="1" arrows="1" fold="1" page="1" pageScale="1" pageWidth="850" pageHeight="1100" math="1" shadow="0">
      <root>
        <mxCell id="0" />
        <mxCell id="1" parent="0" />
        <mxCell id="znkTIlNtDtZZX8zQx8Du-3" value="" style="edgeStyle=orthogonalEdgeStyle;rounded=0;orthogonalLoop=1;jettySize=auto;html=1;" parent="1" source="znkTIlNtDtZZX8zQx8Du-1" target="znkTIlNtDtZZX8zQx8Du-2" edge="1">
          <mxGeometry relative="1" as="geometry" />
        </mxCell>
        <mxCell id="znkTIlNtDtZZX8zQx8Du-1" value="Début" style="ellipse;whiteSpace=wrap;html=1;" parent="1" vertex="1">
          <mxGeometry x="400" y="40" width="80" height="40" as="geometry" />
        </mxCell>
        <mxCell id="znkTIlNtDtZZX8zQx8Du-5" value="" style="edgeStyle=orthogonalEdgeStyle;rounded=0;orthogonalLoop=1;jettySize=auto;html=1;" parent="1" source="znkTIlNtDtZZX8zQx8Du-2" target="znkTIlNtDtZZX8zQx8Du-4" edge="1">
          <mxGeometry relative="1" as="geometry" />
        </mxCell>
        <mxCell id="znkTIlNtDtZZX8zQx8Du-2" value="Calcule la distance d&#39;intensité des voxels voisins à chaque centre de cluster&lt;br&gt;$$D_{iM_j} = \bigl\{d^2_{ik} \in \mathbb{R} \mid d^2_{ik} = \Vert x_k - V_i \Vert, \forall x_k \in M_j \bigr\}$$" style="whiteSpace=wrap;html=1;spacingTop=12;" parent="1" vertex="1">
          <mxGeometry x="225" y="120" width="430" height="80" as="geometry" />
        </mxCell>
        <mxCell id="znkTIlNtDtZZX8zQx8Du-7" value="" style="edgeStyle=orthogonalEdgeStyle;rounded=0;orthogonalLoop=1;jettySize=auto;html=1;" parent="1" source="znkTIlNtDtZZX8zQx8Du-4" target="znkTIlNtDtZZX8zQx8Du-6" edge="1">
          <mxGeometry relative="1" as="geometry" />
        </mxCell>
        <mxCell id="znkTIlNtDtZZX8zQx8Du-4" value="Recherche, pour chaque voxel,&amp;nbsp;sa distance minimum à un cluster, parmi l&#39;ensemble des clusters&lt;br&gt;$$B_{iM_j} = \biggl\{ b_{ik} \in \{0,1\} \mid b_{ik} = \left\{ \begin{array}{2} 1, \text{si}\ d^2_{ik} = min(d^2_{1k},d^2_{2k},...,d^2_{Ck}&lt;br&gt;)\\ 0, \text{sinon} \end{array} \right. \biggr\}$$" style="whiteSpace=wrap;html=1;spacingTop=12;" parent="1" vertex="1">
          <mxGeometry x="172.5" y="240" width="535" height="80" as="geometry" />
        </mxCell>
        <mxCell id="znkTIlNtDtZZX8zQx8Du-11" value="" style="edgeStyle=orthogonalEdgeStyle;rounded=0;orthogonalLoop=1;jettySize=auto;html=1;" parent="1" source="znkTIlNtDtZZX8zQx8Du-6" target="znkTIlNtDtZZX8zQx8Du-10" edge="1">
          <mxGeometry relative="1" as="geometry" />
        </mxCell>
        <mxCell id="znkTIlNtDtZZX8zQx8Du-6" value="Calcule, pour chaque cluster, le ratio des distances minimales de ce cluster et de la somme de l&#39;ensemble&lt;br&gt;$$L_j =&amp;nbsp; \big\{l_{iM_j} \in \mathbb{R} \mid \forall i \in \{1,2,...,C\}\big\}&amp;nbsp;= \biggl\{ \frac{ \sum^{(mr*mc*ms)}_{k=1} {\bigl( D_{iM_j} * B_{iM_j} \bigr)} } {\sum^{C}_{\lambda=1}{\sum^{(mr*mc*ms)}_{k=1} {\bigl( D_{\lambda M_j} * B_{\lambda M_j} \bigr)}} } \biggr\}$$" style="whiteSpace=wrap;html=1;spacingTop=12;" parent="1" vertex="1">
          <mxGeometry x="145" y="360" width="590" height="90" as="geometry" />
        </mxCell>
        <mxCell id="znkTIlNtDtZZX8zQx8Du-8" value="Arrêt" style="ellipse;whiteSpace=wrap;html=1;" parent="1" vertex="1">
          <mxGeometry x="400" y="620" width="80" height="40" as="geometry" />
        </mxCell>
        <mxCell id="znkTIlNtDtZZX8zQx8Du-12" value="" style="edgeStyle=orthogonalEdgeStyle;rounded=0;orthogonalLoop=1;jettySize=auto;html=1;" parent="1" source="znkTIlNtDtZZX8zQx8Du-10" target="znkTIlNtDtZZX8zQx8Du-8" edge="1">
          <mxGeometry relative="1" as="geometry" />
        </mxCell>
        <mxCell id="znkTIlNtDtZZX8zQx8Du-10" value="Calcule une pondération des distances&lt;br&gt;$$W_j = \big\{ w_{iM_j} \in \mathbb{R} \mid \forall i \in \{1,2,...,C\}\big\}&amp;nbsp;= \biggl\{ \frac{\vert\ \delta_{iM_j} - d^2_{ij} \vert} {\sum^C_{l=1} {\vert\ \delta_{lM_j} - d^2_{lj} \vert}} \biggm\vert \delta_{iM_j} = \frac{ \sum^{(mr*mc*ms)}_{k=1, x_k \in M_j}{\bigl&lt;br&gt;(D_{iM_j} * B_{iM_j}\bigr)}}{(mr*mc*ms)} \biggr\} $$" style="whiteSpace=wrap;html=1;spacingTop=12;" parent="1" vertex="1">
          <mxGeometry x="130" y="490" width="620" height="90" as="geometry" />
        </mxCell>
      </root>
    </mxGraphModel>
  </diagram>
</mxfile>
